<svg xmlns="http://www.w3.org/2000/svg" viewBox="0 0 480 270" fill="none">
  <title>Jogadora da linha de trás saltando antes da linha de ataque</title>
  <rect width="480" height="270" rx="24" fill="#FFF7ED"/>
  <rect x="52" y="55" width="376" height="165" rx="8" fill="#DBEAFE" stroke="#1E3A8A" stroke-width="4"/>
  <path d="M240 45V230" stroke="#1E3A8A" stroke-width="6"/>
  <path d="M93 55V220" stroke="#EA580C" stroke-width="5" stroke-dasharray="10 8"/>
  <text x="62" y="46" fill="#C2410C" font-family="Arial, sans-serif" font-size="15" font-weight="700">linha de ataque</text>
  <path d="M151 174C170 131 188 103 214 86" stroke="#16A34A" stroke-width="6" stroke-linecap="round" stroke-dasharray="9 9"/>
  <path d="M207 84L219 82L214 95" stroke="#16A34A" stroke-width="6" stroke-linecap="round" stroke-linejoin="round"/>
  <circle cx="184" cy="102" r="15" fill="#1D4ED8"/>
  <path d="M184 118V159M184 129L213 108M184 129L162 144M184 159L166 189M184 159L205 184" stroke="#1D4ED8" stroke-width="9" stroke-linecap="round"/>
  <circle cx="218" cy="89" r="13" fill="#F97316" stroke="#9A3412" stroke-width="3"/>
  <path d="M175 193C185 203 195 208 208 210" stroke="#1D4ED8" stroke-width="8" stroke-linecap="round"/>
  <text x="110" y="210" fill="#15803D" font-family="Arial, sans-serif" font-size="17" font-weight="700">impulso atrás da linha</text>
</svg>
