<svg xmlns="http://www.w3.org/2000/svg" viewBox="0 0 480 270" fill="none">
  <title>Comparação entre bola rebatida e bola conduzida</title>
  <rect width="480" height="270" rx="24" fill="#FFF7ED"/>
  <rect x="34" y="38" width="190" height="194" rx="16" fill="#EFF6FF" stroke="#93C5FD" stroke-width="3"/>
  <rect x="256" y="38" width="190" height="194" rx="16" fill="#FEF2F2" stroke="#FCA5A5" stroke-width="3"/>
  <path d="M129 81C107 110 108 137 127 160" stroke="#EA580C" stroke-width="6" stroke-linecap="round" stroke-dasharray="9 9"/>
  <circle cx="129" cy="70" r="15" fill="#F97316" stroke="#9A3412" stroke-width="3"/>
  <path d="M95 174C111 161 144 161 162 174" stroke="#1D4ED8" stroke-width="10" stroke-linecap="round"/>
  <path d="M99 201L113 215L143 184" stroke="#15803D" stroke-width="8" stroke-linecap="round" stroke-linejoin="round"/>
  <circle cx="351" cy="126" r="16" fill="#F97316" stroke="#9A3412" stroke-width="3"/>
  <path d="M311 147C325 128 338 119 351 119C364 119 377 128 391 147" stroke="#B91C1C" stroke-width="12" stroke-linecap="round"/>
  <path d="M321 188L384 215M384 188L321 215" stroke="#DC2626" stroke-width="8" stroke-linecap="round"/>
</svg>
