<svg xmlns="http://www.w3.org/2000/svg" viewBox="0 0 480 270" fill="none">
  <title>Jogadora em quadra e reserva trocando de posição</title>
  <rect width="480" height="270" rx="24" fill="#FFF7ED"/>
  <rect x="52" y="55" width="250" height="165" rx="8" fill="#DBEAFE" stroke="#1E3A8A" stroke-width="4"/>
  <path d="M177 55V220" stroke="#93C5FD" stroke-width="3" stroke-dasharray="8 8"/>
  <text x="102" y="83" fill="#1E3A8A" font-family="Arial, sans-serif" font-size="17" font-weight="700">QUADRA</text>
  <circle cx="143" cy="128" r="16" fill="#1D4ED8"/>
  <path d="M143 145V181M143 154L118 169M143 154L168 169M143 181L125 203M143 181L161 203" stroke="#1D4ED8" stroke-width="9" stroke-linecap="round"/>
  <rect x="342" y="79" width="92" height="115" rx="12" fill="#FEF3C7" stroke="#D97706" stroke-width="4"/>
  <text x="354" y="105" fill="#92400E" font-family="Arial, sans-serif" font-size="15" font-weight="700">BANCO</text>
  <circle cx="387" cy="131" r="16" fill="#F97316"/>
  <path d="M387 148V173M387 156L367 169M387 156L407 169M387 173L372 188M387 173L402 188" stroke="#F97316" stroke-width="8" stroke-linecap="round"/>
  <path d="M184 115C232 91 281 96 335 120" stroke="#16A34A" stroke-width="6" stroke-linecap="round" stroke-dasharray="9 9"/>
  <path d="M327 111L340 122L323 129" stroke="#16A34A" stroke-width="6" stroke-linecap="round" stroke-linejoin="round"/>
  <path d="M337 166C289 190 237 187 188 164" stroke="#EA580C" stroke-width="6" stroke-linecap="round" stroke-dasharray="9 9"/>
  <path d="M196 156L180 162L193 173" stroke="#EA580C" stroke-width="6" stroke-linecap="round" stroke-linejoin="round"/>
  <text x="113" y="210" fill="#1E3A8A" font-family="Arial, sans-serif" font-size="15" font-weight="700">posição 4</text>
</svg>
